# xmcd CD database file
#
# Track frame offsets:
#	150
#	13040
#	25524
#	40258
#	56788
#	70090
#	83640
#	98177
#	114617
#	128081
#	143494
#	156437
#	169897
#	181812
#	192764
#	207207
#	224627
#	237135
#	249472
#	263246
#
# Disc length: 3685 seconds
#
# Revision: 1
# Processed by: cddbd v1.5.2PL0 Copyright (c) Steve Scherf et al.
# Submitted via: CDex 1.81
#
DISCID=140e6314
DTITLE=Erroll Garner - JB 09 Erroll Garner
DYEAR=2004
DGENRE=Jazz
TTITLE0=Misty
TTITLE1=Laura
TTITLE2=Summertime
TTITLE3=I Cover The Waterfront
TTITLE4=Penthouse Serenade
TTITLE5=Blue and Sentimental
TTITLE6=Pavanne Mood
TTITLE7=I'm In The Mood For Love
TTITLE8=Reverie
TTITLE9=How High The Moon
TTITLE10=Turquoise
TTITLE11=Flamingo
TTITLE12=Long Ago And Far Away
TTITLE13=Spring Is Here
TTITLE14=The Way You Look Tonight
TTITLE15=People Will Say We're In Love
TTITLE16=More Than You Know
TTITLE17=Red Sails In The Sunset
TTITLE18=Over The Rainbow
TTITLE19=Goodbye
EXTD=YEAR: 2004
EXTT0=
EXTT1=
EXTT2=
EXTT3=
EXTT4=
EXTT5=
EXTT6=
EXTT7=
EXTT8=
EXTT9=
EXTT10=
EXTT11=
EXTT12=
EXTT13=
EXTT14=
EXTT15=
EXTT16=
EXTT17=
EXTT18=
EXTT19=
PLAYORDER=
